<?xml version="1.0" encoding="UTF-8"?>
<svg id="Layer_1" data-name="Layer 1" xmlns="http://www.w3.org/2000/svg" viewBox="0 0 25.12 31.98">
  <defs>
    <style>
      .cls-1 {
        stroke-width: 0px;
      }
    </style>
  </defs>
  <path class="cls-1" d="m23.82.01c-.1,0-1.1.2-1.2.2l-13.9,2.8h0c-.4.1-.6.2-.9.4-.3.2-.4.5-.5.9v18c0,.4,0,.8-.3,1.1s-.6.4-1,.5c-.3.1-.6.1-.9.2-1.1.2-1.9.4-2.6.7-.6.3-1.1.6-1.5,1-.8.8-1.1,1.9-1,2.9.1.9.5,1.7,1.2,2.3.5.4,1,.7,1.7.9.7.1,1.4.1,2.5-.1.6-.1,1.1-.3,1.6-.6s.9-.7,1.3-1.2c.3-.5.6-1,.7-1.6s.2-1.1.2-1.7v-15.2c0-.8.2-1,.9-1.2,0,0,11.5-2.3,12.1-2.4.8-.1,1.1.1,1.1.9v10.4c0,.4,0,.8-.3,1.2-.3.3-.6.4-1,.5-.3.1-.6.1-.9.2-1.1.2-1.9.4-2.6.7-.6.3-1.1.6-1.5,1-.8.8-1.1,1.9-1,2.9.1.9.5,1.7,1.2,2.3.5.4,1,.7,1.7.9.7.1,1.4.1,2.5-.1.6-.1,1.1-.3,1.6-.6s.9-.7,1.3-1.2c.3-.5.6-1,.7-1.6s.1-1.1.1-1.7V1.21c-.1-.8-.6-1.3-1.3-1.2Z"/>
</svg>