<svg xmlns="http://www.w3.org/2000/svg" viewBox="0 0 32 32">
	<path d="M27.1,5.9c-2.1-1-4.3-1.6-6.6-2c-0.3,0.6-0.6,1.1-0.8,1.7c-2.4-0.4-4.9-0.4-7.3,0c-0.3-0.6-0.5-1.2-0.8-1.7
		C9.2,4.3,7,4.9,4.9,5.9c-4.2,6.2-5.3,12.2-4.7,18.2l0,0c2.4,1.8,5.2,3.2,8.1,4.1c0.7-0.9,1.2-1.8,1.7-2.8C9,25,8.1,24.5,7.2,24
		c0.2-0.2,0.5-0.3,0.7-0.5c5.1,2.4,11.1,2.4,16.2,0c0.2,0.2,0.4,0.3,0.7,0.5c-0.9,0.5-1.8,1-2.7,1.3c0.5,1,1.1,1.9,1.7,2.8
		c2.9-0.9,5.7-2.3,8.1-4.1l0,0C32.5,17.2,30.7,11.2,27.1,5.9z M10.7,20.4c-1.6,0-2.9-1.4-2.9-3.2S9.1,14,10.7,14s2.9,1.4,2.9,3.2
		S12.3,20.4,10.7,20.4z M21.3,20.4c-1.6,0-2.9-1.4-2.9-3.2s1.3-3.2,2.9-3.2c1.6,0,2.9,1.4,2.9,3.2C24.2,19,22.9,20.4,21.3,20.4z"
	/>
</svg>
