<?xml version="1.0" encoding="UTF-8"?>
<svg id="Layer_1" data-name="Layer 1" xmlns="http://www.w3.org/2000/svg" viewBox="0 0 393.88 393.88">
  <defs>
    <style>
      .cls-1 {
        fill: #fff;
        stroke-width: 0px;
      }
    </style>
  </defs>
  <path class="cls-1" d="m196.95,0C143.47,0,136.75.23,115.75,1.19c-20.97.96-35.28,4.28-47.8,9.15-12.95,5.03-23.94,11.76-34.89,22.71-10.95,10.95-17.68,21.93-22.73,34.88-4.88,12.53-8.21,26.84-9.15,47.8-.94,21.01-1.18,27.72-1.18,81.21s.24,60.18,1.19,81.18c.96,20.97,4.28,35.28,9.15,47.8,5.03,12.95,11.76,23.94,22.71,34.89,10.94,10.95,21.93,17.7,34.87,22.73,12.53,4.87,26.85,8.19,47.81,9.15,21.01.96,27.72,1.19,81.2,1.19s60.18-.23,81.19-1.19c20.97-.96,35.29-4.28,47.82-9.15,12.95-5.03,23.92-11.78,34.86-22.73,10.95-10.95,17.68-21.93,22.73-34.88,4.84-12.53,8.16-26.84,9.15-47.8.94-21.01,1.19-27.7,1.19-81.19s-.25-60.2-1.19-81.2c-.98-20.97-4.31-35.28-9.15-47.8-5.05-12.95-11.78-23.94-22.73-34.89-10.95-10.95-21.91-17.68-34.87-22.71-12.55-4.87-26.87-8.19-47.84-9.15-21.01-.96-27.69-1.19-81.2-1.19h.06Zm-17.67,35.49c5.24,0,11.09,0,17.67,0,52.58,0,58.82.19,79.58,1.13,19.2.88,29.62,4.09,36.57,6.78,9.19,3.57,15.74,7.84,22.63,14.73,6.89,6.89,11.16,13.46,14.74,22.65,2.7,6.93,5.91,17.36,6.78,36.56.94,20.76,1.15,27,1.15,79.56s-.21,58.79-1.15,79.56c-.88,19.2-4.09,29.62-6.78,36.56-3.57,9.19-7.84,15.73-14.74,22.62-6.89,6.89-13.44,11.16-22.63,14.73-6.93,2.71-17.36,5.91-36.57,6.79-20.76.94-27,1.15-79.58,1.15s-58.82-.21-79.58-1.15c-19.2-.89-29.62-4.09-36.57-6.79-9.19-3.57-15.76-7.84-22.65-14.73-6.89-6.89-11.16-13.44-14.74-22.64-2.7-6.93-5.91-17.36-6.78-36.56-.94-20.76-1.13-27-1.13-79.59s.19-58.79,1.13-79.56c.88-19.2,4.09-29.62,6.78-36.57,3.57-9.19,7.84-15.76,14.74-22.65,6.89-6.89,13.46-11.16,22.65-14.74,6.94-2.71,17.37-5.91,36.57-6.79,18.17-.82,25.21-1.07,61.91-1.11v.05Zm122.79,32.7c-13.05,0-23.63,10.58-23.63,23.63,0,13.05,10.58,23.63,23.63,23.63s23.63-10.58,23.63-23.63h0c0-13.06-10.59-23.64-23.63-23.64h0Zm-105.12,27.61c-55.85,0-101.14,45.28-101.14,101.14s45.28,101.12,101.14,101.12c55.85,0,101.12-45.26,101.12-101.12s-45.28-101.14-101.13-101.14h0Zm0,35.49c36.25,0,65.65,29.39,65.65,65.65s-29.39,65.65-65.65,65.65-65.65-29.39-65.65-65.65,29.39-65.65,65.65-65.65Z"/>
</svg>