<svg xmlns="http://www.w3.org/2000/svg" viewBox="0 0 32 32">
<path d="M16,0C7.2,0,0,7.2,0,16s7.2,16,16,16s16-7.2,16-16S24.8,0,16,0 M23.3,23.1c-0.3,0.5-0.9,0.6-1.4,0.3
	c-3.8-2.3-8.5-2.8-14.1-1.5c-0.5,0.1-1.1-0.2-1.2-0.7s0.2-1.1,0.8-1.2c6.1-1.4,11.3-0.8,15.5,1.8C23.5,22,23.6,22.6,23.3,23.1
	 M25.3,18.7c-0.4,0.6-1.1,0.8-1.7,0.4c-4.3-2.6-10.9-3.4-15.9-1.9C7,17.4,6.3,17,6.1,16.4c-0.2-0.7,0.2-1.4,0.8-1.6
	c5.8-1.8,13-0.9,18,2.1C25.5,17.4,25.7,18.1,25.3,18.7 M25.5,14.2c-5.2-3.1-13.7-3.3-18.6-1.9c-0.8,0.2-1.6-0.2-1.9-1
	c-0.2-0.8,0.2-1.6,1-1.9c5.7-1.7,15-1.4,21,2.1c0.7,0.4,0.9,1.3,0.5,2.1C27.1,14.4,26.2,14.6,25.5,14.2"/>
</svg>